<svg width="48" height="48" viewBox="0 0 48 48" fill="none" xmlns="http://www.w3.org/2000/svg">
<path d="M4 13.9C4 12.134 4 11.252 4.14 10.516C4.43845 8.93568 5.20627 7.482 6.3433 6.34461C7.48033 5.20723 8.93377 4.43894 10.514 4.14C11.252 4 12.136 4 13.9 4C14.672 4 15.06 4 15.432 4.034C17.0341 4.18446 18.5536 4.81456 19.792 5.842C20.08 6.08 20.352 6.352 20.9 6.9L22 8C23.632 9.632 24.448 10.448 25.424 10.99C25.9604 11.289 26.5295 11.5252 27.12 11.694C28.196 12 29.35 12 31.656 12H32.404C37.668 12 40.302 12 42.012 13.54C42.1707 13.68 42.32 13.8293 42.46 13.988C44 15.698 44 18.332 44 23.596V28C44 35.542 44 39.314 41.656 41.656C39.312 43.998 35.542 44 28 44H20C12.458 44 8.686 44 6.344 41.656C4.002 39.312 4 35.542 4 28V13.9Z" stroke="#8A79F6" stroke-width="1.5"/>
<path d="M20 27L22.666 30L28 24" stroke="#8A79F6" stroke-width="1.5" stroke-linecap="round" stroke-linejoin="round"/>
</svg>
