<svg width="18" height="19" viewBox="0 0 18 19" fill="none" xmlns="http://www.w3.org/2000/svg">
<path fill-rule="evenodd" clip-rule="evenodd" d="M18 9.7046C18 9.06642 17.9416 8.45278 17.833 7.86369H9.18367V11.3451H14.1262C13.9133 12.4701 13.2662 13.4232 12.2936 14.0614V16.3196H15.2616C16.9981 14.7528 18 12.4455 18 9.7046Z" fill="#4285F4"/>
<path fill-rule="evenodd" clip-rule="evenodd" d="M9.18368 18.5C11.6633 18.5 13.7421 17.6942 15.2616 16.3196L12.2936 14.0614C11.4712 14.6014 10.4193 14.9205 9.18368 14.9205C6.79175 14.9205 4.76717 13.3373 4.045 11.21H0.976813V13.5418C2.48795 16.4832 5.5937 18.5 9.18368 18.5Z" fill="#34A853"/>
<path fill-rule="evenodd" clip-rule="evenodd" d="M4.045 11.21C3.86132 10.67 3.75696 10.0932 3.75696 9.50005C3.75696 8.90687 3.86132 8.33005 4.04499 7.79005V5.45823H0.976809C0.354824 6.67323 0 8.04778 0 9.50005C0 10.9523 0.354828 12.3268 0.976813 13.5418L4.045 11.21Z" fill="#FBBC05"/>
<path fill-rule="evenodd" clip-rule="evenodd" d="M9.18368 4.07955C10.532 4.07955 11.7426 4.53364 12.6944 5.42546L15.3284 2.84409C13.738 1.39182 11.6591 0.5 9.18368 0.5C5.5937 0.5 2.48794 2.51687 0.976809 5.45823L4.04499 7.79005C4.76716 5.66278 6.79175 4.07955 9.18368 4.07955Z" fill="#EA4335"/>
</svg>
