<svg width="68" height="68" viewBox="0 0 68 68" fill="none" xmlns="http://www.w3.org/2000/svg">
<path d="M57.8002 34C57.8002 20.8556 47.1446 10.2 34.0002 10.2C20.8558 10.2 10.2002 20.8556 10.2002 34C10.2002 47.1444 20.8558 57.8 34.0002 57.8C47.1446 57.8 57.8002 47.1444 57.8002 34Z" fill="#FEECBA"/>
<path d="M33.9998 57.6111C47.0398 57.6111 57.6109 47.0401 57.6109 34C57.6109 20.9599 47.0398 10.3889 33.9998 10.3889C20.9597 10.3889 10.3887 20.9599 10.3887 34C10.3887 47.0401 20.9597 57.6111 33.9998 57.6111Z" stroke="#8A79F6" stroke-width="1.5"/>
<path d="M26.71 43.2877C29.6809 44.0324 33.0517 44.0328 36.4436 43.1238C39.8356 42.215 42.7544 40.5292 44.9552 38.3987" stroke="#8A79F6" stroke-width="1.5" stroke-linecap="round"/>
<path d="M40.8415 32.1653C42.1011 31.8278 42.7118 30.0225 42.2055 28.1332C41.6993 26.2438 40.2678 24.9858 39.0082 25.3233C37.7486 25.6608 37.1379 27.466 37.6442 29.3554C38.1504 31.2447 39.5819 32.5028 40.8415 32.1653Z" fill="#8A79F6"/>
<path d="M27.1579 35.8338C28.4175 35.4963 29.0282 33.6911 28.5219 31.8018C28.0157 29.9124 26.5842 28.6544 25.3246 28.9919C24.065 29.3294 23.4543 31.1346 23.9606 33.024C24.4668 34.9133 25.8983 36.1713 27.1579 35.8338Z" fill="#8A79F6"/>
<path d="M36.3608 43.4454L37.4895 45.7446C38.3425 47.4829 40.4335 48.2134 42.1836 47.3849C43.969 46.5399 44.7178 44.3972 43.8474 42.6237L42.763 40.4147" stroke="#8A79F6" stroke-width="1.5"/>
</svg>
