<svg width="32" height="32" viewBox="0 0 32 32" fill="none" xmlns="http://www.w3.org/2000/svg">
<circle cx="15.9998" cy="16" r="13.3333" fill="#BDBDBD" fill-opacity="0.933333"/>
<path fill-rule="evenodd" clip-rule="evenodd" d="M29.3332 16C29.3332 23.364 23.3638 29.3333 15.9998 29.3333C8.63584 29.3333 2.6665 23.364 2.6665 16C2.6665 8.63601 8.63584 2.66667 15.9998 2.66667C23.3638 2.66667 29.3332 8.63601 29.3332 16ZM19.9998 12C19.9998 13.0609 19.5784 14.0783 18.8283 14.8284C18.0781 15.5786 17.0607 16 15.9998 16C14.939 16 13.9216 15.5786 13.1714 14.8284C12.4213 14.0783 11.9998 13.0609 11.9998 12C11.9998 10.9391 12.4213 9.92172 13.1714 9.17158C13.9216 8.42143 14.939 8.00001 15.9998 8.00001C17.0607 8.00001 18.0781 8.42143 18.8283 9.17158C19.5784 9.92172 19.9998 10.9391 19.9998 12ZM15.9998 27.3333C18.2882 27.337 20.5236 26.6446 22.4092 25.348C23.2145 24.7947 23.5585 23.7413 23.0892 22.884C22.1198 21.1067 20.1198 20 15.9998 20C11.8798 20 9.87984 21.1067 8.90917 22.884C8.44117 23.7413 8.78517 24.7947 9.5905 25.348C11.4761 26.6446 13.7115 27.337 15.9998 27.3333Z" fill="#D6D0FC"/>
</svg>
