<svg width="48" height="28" viewBox="0 0 48 28" fill="none" xmlns="http://www.w3.org/2000/svg">
<circle cx="14" cy="14" r="13.5" fill="white" stroke="#8A79F6"/>
<circle cx="34" cy="14" r="13.5" fill="white" stroke="#8A79F6"/>
<rect x="5" y="5" width="39" height="18" rx="9" fill="white"/>
<path d="M14.1953 17.3125H14.3047L17.0703 8.6875H19.6641L15.7578 20H12.7422L8.82031 8.6875H11.4453L14.1953 17.3125Z" fill="#8A79F6"/>
<path d="M36.8047 11.9219C36.7578 11.474 36.5625 11.125 36.2188 10.875C35.8802 10.625 35.4245 10.5 34.8516 10.5C34.4609 10.5 34.125 10.5573 33.8438 10.6719C33.5677 10.7812 33.3568 10.9349 33.2109 11.1328C33.0651 11.3307 32.9922 11.5547 32.9922 11.8047C32.9922 12.1797 33.1536 12.4766 33.4766 12.6953C33.8047 12.9089 34.2474 13.0781 34.8047 13.2031L35.8203 13.4531C36.8672 13.6927 37.6927 14.0833 38.2969 14.625C38.901 15.1615 39.2057 15.875 39.2109 16.7656C39.2109 17.4531 39.0365 18.0521 38.6875 18.5625C38.3385 19.0729 37.8359 19.4661 37.1797 19.7422C36.5234 20.0182 35.7422 20.1562 34.8359 20.1562C33.9193 20.1615 33.125 20.0234 32.4531 19.7422C31.7812 19.4609 31.2578 19.0443 30.8828 18.4922C30.5078 17.9401 30.3099 17.2656 30.2891 16.4688H32.5703C32.6068 17.026 32.8255 17.4531 33.2266 17.75C33.6328 18.0417 34.1589 18.1875 34.8047 18.1875C35.2109 18.1875 35.5677 18.1276 35.875 18.0078C36.1823 17.888 36.4193 17.7214 36.5859 17.5078C36.7526 17.2943 36.8359 17.0469 36.8359 16.7656C36.8359 16.401 36.6771 16.112 36.3594 15.8984C36.0469 15.6797 35.5599 15.4896 34.8984 15.3281L33.6641 15.0312C31.612 14.526 30.5859 13.5 30.5859 11.9531C30.5859 11.2812 30.7682 10.6875 31.1328 10.1719C31.5026 9.65104 32.0104 9.2474 32.6562 8.96094C33.3073 8.67448 34.0443 8.53125 34.8672 8.53125C35.6901 8.53125 36.4167 8.67448 37.0469 8.96094C37.6771 9.2474 38.1667 9.64844 38.5156 10.1641C38.8646 10.6745 39.0443 11.2604 39.0547 11.9219H36.8047Z" fill="#8A79F6"/>
</svg>
